<svg width="200" height="228"><defs></defs><g fill="#f96a10"></g><g fill="#000000" transform="matrix(0.6735518881067772,0,0,0.6735518881067772,32,5)"><defs xmlns="http://www.w3.org/2000/svg"></defs><path xmlns="http://www.w3.org/2000/svg" d="M100.215,200.43c55.259,0,100.215-44.956,100.215-100.215S155.474,0,100.215,0S0,44.956,0,100.215  S44.956,200.43,100.215,200.43z M100.215,10c49.745,0,90.215,40.47,90.215,90.215s-40.47,90.215-90.215,90.215  C50.47,190.43,10,149.959,10,100.215S50.47,10,100.215,10z"></path></g><g fill="#000000" transform="matrix(0.7,0,0,0.7,65,42)"><path xmlns="http://www.w3.org/2000/svg" d="M62.5,12.5c13.794,0,25,11.206,25,25s-11.206,25-25,25h-25c-8.154,0-15.418,3.931-19.982,10.01  c-3.04-2.295-5.018-5.933-5.018-10.01V31.25c0-10.34,8.423-18.75,18.75-18.75H62.5 M62.5,0H31.25C13.989,0,0,13.989,0,31.25V62.5  c0,13.807,11.206,25,25,25C25,80.591,30.604,75,37.5,75h25C83.215,75,100,58.203,100,37.5S83.215,0,62.5,0L62.5,0z" fill="#000000"></path></g><g fill="#000000" transform="matrix(3.6012980422928123,0,0,3.6012980422928123,-1.5845711300226737,144.83272958937408)"><path d="M0.44 13.04 l0.34 -2.36 c0.48 -0.08 1.16 -0.18 1.78 -0.18 c1.56 0 2.28 0.62 2.28 1.98 c0 1.22 -0.58 3.42 -0.58 4.66 c0 0.32 0.04 0.58 0.32 0.58 c0.88 0 2.5 -3.08 2.5 -4.18 c0 -0.36 -0.26 -0.7 -0.74 -0.7 c-0.12 0 -0.32 0.02 -0.32 0.02 l0.32 -2.3 s0.32 -0.08 0.86 -0.08 c1.78 0 2.68 0.92 2.68 2.56 c0 2.4 -2.62 7.24 -6.02 7.24 c-1.4 0 -2.66 -0.74 -2.66 -2.46 c0 -1 0.42 -3.2 0.42 -4.1 c0 -0.6 -0.18 -0.82 -0.6 -0.82 c-0.3 0 -0.54 0.12 -0.58 0.14 z M10.94 20 l0.96 -7.08 l-1.06 0 l0.32 -2.26 l3.92 0 l-0.26 1.94 l0.1 0.04 c0.52 -1.2 1.3 -2.26 2.68 -2.26 c0.5 0 1.08 0.12 1.42 0.46 l-1.68 3.36 c-0.24 -0.24 -0.44 -0.34 -0.86 -0.34 c-1.62 0 -1.9 2.58 -2.14 4.2 l-0.34 1.94 l-3.06 0 z M19.439999999999998 17.06 l0.56 -4.14 l-1.06 0 l0.32 -2.26 l4.1 0 l-0.84 5.94 c-0.02 0.2 -0.04 0.36 -0.04 0.5 c0 0.4 0.12 0.62 0.52 0.62 c0.36 0 0.64 -0.18 0.64 -0.18 l-0.24 2.36 c-0.48 0.14 -1 0.22 -1.54 0.22 c-1.9 0 -2.48 -1 -2.48 -2.3 c0 -0.24 0.02 -0.5 0.06 -0.76 z M20.22 7.4 c0 -0.98 0.84 -1.8 1.82 -1.8 s1.8 0.82 1.8 1.8 s-0.82 1.82 -1.8 1.82 s-1.82 -0.84 -1.82 -1.82 z M29.74 16 l-1.98 0.7 c0.1 0.88 0.44 1.26 1.1 1.26 c0.7 0 1.26 -0.38 1.54 -1.1 l2.48 0.88 c-0.68 1.56 -1.96 2.54 -4.24 2.54 c-2.5 0 -3.94 -1.18 -3.94 -3.9 c0 -2.6 1.32 -6 5.44 -6 c1.64 0 3.16 0.66 3.16 2.44 c0 1.46 -0.94 2.26 -3.56 3.18 z M29.599999999999998 12.6 c-0.9 0 -1.52 0.9 -1.76 2.16 l0.9 -0.32 c1.04 -0.36 1.58 -0.62 1.58 -1.2 c0 -0.4 -0.14 -0.64 -0.72 -0.64 z M34.32 20 l1 -7.08 l-1.06 0 l0.32 -2.26 l3.92 0 l-0.34 1.74 l0.06 0.02 c0.54 -0.9 1.66 -2.04 3.26 -2.04 c1.86 0 2.42 1.26 2.42 2.4 c0 1.16 -0.8 3.58 -0.8 4.38 c0 0.32 0.12 0.56 0.54 0.56 c0.32 0 0.6 -0.18 0.6 -0.18 l-0.26 2.36 c-0.44 0.14 -0.98 0.22 -1.44 0.22 c-1.96 0 -2.52 -1.14 -2.52 -2.48 c0 -1.42 0.68 -2.86 0.68 -3.76 c0 -0.44 -0.16 -0.66 -0.46 -0.66 c-1.02 0 -2.18 1.88 -2.42 3.7 l-0.42 3.08 l-3.08 0 z M45.26 16.56 c0 -3.28 1.84 -6.18 4.8 -6.18 c0.66 0 1.54 0.26 1.98 0.88 l0.46 -3.36 l-1.06 0 l0.32 -2.26 l4.16 0 l-1.58 11.02 c-0.02 0.12 -0.04 0.36 -0.04 0.54 c0 0.4 0.18 0.52 0.4 0.52 c0.34 0 0.62 -0.18 0.62 -0.18 l-0.24 2.36 c-0.44 0.14 -1 0.22 -1.52 0.22 c-1.32 0 -2.12 -0.42 -2.12 -1.74 l-0.06 0 c-0.52 0.96 -1.6 1.9 -3.1 1.9 s-3.02 -0.94 -3.02 -3.72 z M49.36 17.96 c1.02 0 2.2 -1.9 2.2 -3.78 c0 -1.14 -0.46 -1.48 -1.04 -1.48 c-1.26 0 -2.1 1.8 -2.1 3.74 c0 0.96 0.24 1.52 0.94 1.52 z"></path></g></svg>